<svg xmlns="http://www.w3.org/2000/svg" viewBox="0 0 384 512"><defs><style>.cls-1{fill:#16c3dc;}</style></defs><g id="Слой_2" data-name="Слой 2"><g id="Слой_1-2" data-name="Слой 1"><path class="cls-1" d="M224,136V0H24A23.94,23.94,0,0,0,0,24V488a23.94,23.94,0,0,0,24,24H360a23.94,23.94,0,0,0,24-24V160H248A24.07,24.07,0,0,1,224,136Zm60.1,106.5L224,336l60.1,93.5A12,12,0,0,1,274,448H239.1a12,12,0,0,1-10.6-6.3C208.9,405.5,192,373,192,373c-6.4,14.8-10,20-36.6,68.8a11.89,11.89,0,0,1-10.5,6.3H110a12,12,0,0,1-10.1-18.5l60.3-93.5L99.9,242.6A12,12,0,0,1,110,224.1h34.8a12,12,0,0,1,10.6,6.3c26.1,48.8,20,33.6,36.6,68.5,0,0,6.1-11.7,36.6-68.5a12,12,0,0,1,10.6-6.3H274a11.93,11.93,0,0,1,10.1,18.4ZM384,121.9V128H256V0h6.1a24,24,0,0,1,17,7L377,105A23.92,23.92,0,0,1,384,121.9Z"/></g></g></svg>