<svg id="Layer_5" enable-background="new 0 0 64 64" height="512" viewBox="0 0 64 64" width="512" xmlns="http://www.w3.org/2000/svg"><path d="m58 1h-52c-2.757 0-5 2.243-5 5v38c0 2.757 2.243 5 5 5h7v-4h14v6.285c-5.477.63-11 2.422-11 5.715 0 3.939 8.049 6 16 6s16-2.061 16-6c0-3.292-5.523-5.084-11-5.715v-6.285h14v4h7c2.757 0 5-2.243 5-5v-38c0-2.757-2.243-5-5-5zm-47 46h-5c-1.654 0-3-1.346-3-3v-34.002c.836.629 1.875 1.002 3 1.002h5zm2-34h6v6h-6zm26.478 16h3.522v6h-2v-1c0-1.849-.562-3.569-1.522-5zm-4.478 2v25c0 .552-.448 1-1 1s-1-.448-1-1v-17h-2v17c0 .552-.448 1-1 1s-1-.448-1-1v-25h-2v10c-1.103 0-2-.897-2-2v-5c0-3.859 3.141-7 7-7s7 3.141 7 7v5c0 1.103-.897 2-2 2v-10zm-12 3v1h-2v-6h3.522c-.96 1.431-1.522 3.151-1.522 5zm5.374-8.231c-.728.322-1.407.736-2.019 1.231h-5.355v-6h5c0 1.945.935 3.672 2.374 4.769zm9.271 1.231c-.612-.494-1.29-.909-2.019-1.231 1.439-1.097 2.374-2.824 2.374-4.769h5v6zm-1.645-6c0 2.206-1.794 4-4 4s-4-1.794-4-4 1.794-4 4-4 4 1.794 4 4zm9 8h6v6h-6zm0-2v-6h6v6zm0-8v-6h6v6zm-2 0h-5.35c-.165-.465-.381-.905-.65-1.31v-4.69h6zm-8-3.188c-.884-.513-1.907-.812-3-.812s-2.116.299-3 .812v-2.812h6zm-8 1.878c-.269.404-.485.845-.65 1.31h-5.35v-6h6zm-14 3.31h6v6h-6zm0 8h6v6h-6zm0 8h6v6h-6zm8 6v-6h2v2c0 2.206 1.794 4 4 4zm25 14c0 1.631-5.454 4-14 4s-14-2.369-14-4c0-1.101 2.871-2.965 9-3.701v2.701c0 1.654 1.346 3 3 3 .771 0 1.468-.301 2-.78.532.48 1.229.78 2 .78 1.654 0 3-1.346 3-3v-2.701c6.129.736 9 2.6 9 3.701zm-5-18v-2h2v6h-6c2.206 0 4-1.794 4-4zm4 4v-6h6v6zm16 1c0 1.654-1.346 3-3 3h-5v-36h5c1.125 0 2.164-.373 3-1.002zm-3-35h-7v2h-38v-2h-7c-1.654 0-3-1.346-3-3s1.346-3 3-3h52c1.654 0 3 1.346 3 3s-1.346 3-3 3z"/><path d="m57 43h2v2h-2z"/><path d="m57 39h2v2h-2z"/><path d="m57 35h2v2h-2z"/><path d="m5 13h2v2h-2z"/><path d="m5 17h2v2h-2z"/><path d="m5 21h2v2h-2z"/></svg>