<svg xmlns="http://www.w3.org/2000/svg" xmlns:xlink="http://www.w3.org/1999/xlink" viewBox="0 0 99.09 65.85"><defs><style>.cls-1{fill:url(#Безымянный_градиент_100);}.cls-2{fill:url(#Безымянный_градиент_106);}</style><linearGradient id="Безымянный_градиент_100" x1="-0.75" y1="30.09" x2="60.43" y2="30.09" gradientTransform="translate(0.76 -0.26) rotate(0.03)" gradientUnits="userSpaceOnUse"><stop offset="0" stop-color="#d247c2"/><stop offset="1" stop-color="#59a4ff"/></linearGradient><linearGradient id="Безымянный_градиент_106" x1="37.12" y1="36.25" x2="98.35" y2="36.25" gradientTransform="translate(0.76 -0.26) rotate(0.03)" gradientUnits="userSpaceOnUse"><stop offset="0" stop-color="#59a4ff"/><stop offset="1" stop-color="#83e8fd"/></linearGradient></defs><title>soundnova_symbol_gradient</title><g id="Слой_2" data-name="Слой 2"><g id="Слой_1-2" data-name="Слой 1"><path class="cls-1" d="M48.45,23.22a39.37,39.37,0,0,1,5.36.84l.54.12c.2,0,.4.07.59.08a5.74,5.74,0,0,0,4.56-9.78c-.16-.15-.35-.31-.53-.45A63.4,63.4,0,0,0,28.62.32,24.67,24.67,0,0,0,0,24.29,63.35,63.35,0,0,0,8.17,56.61c.11.2.23.41.36.6a5.79,5.79,0,0,0,4.22,2.45A5.7,5.7,0,0,0,19,54.44a4.88,4.88,0,0,0,0-.53,1.41,1.41,0,0,0,0-.29,38.41,38.41,0,0,1,.08-5.77,43,43,0,0,1,1.17-6.68,24.22,24.22,0,0,1,21.44-18A37.46,37.46,0,0,1,48.45,23.22Z"/><path class="cls-2" d="M90.89,9.27c-.11-.19-.24-.41-.36-.59A5.74,5.74,0,0,0,80.1,11.46a5.62,5.62,0,0,0,0,.59,5.4,5.4,0,0,0,0,.56A37.9,37.9,0,0,1,80,18a37.46,37.46,0,0,1-1.17,6.68,24.23,24.23,0,0,1-21.43,18,40.4,40.4,0,0,1-6.78,0,38.28,38.28,0,0,1-5.7-.93.69.69,0,0,0-.28,0l-.53-.08a5.7,5.7,0,0,0-6.22,5.21,5.77,5.77,0,0,0,1.68,4.59c.16.16.35.31.52.46A63.44,63.44,0,0,0,70.47,65.54a24.69,24.69,0,0,0,28.61-24A63.5,63.5,0,0,0,90.89,9.27Z"/></g></g></svg>