<svg xmlns="http://www.w3.org/2000/svg" viewBox="0 0 512 338.31"><defs><style>.cls-1{fill:#fff;}</style></defs><g id="Слой_2" data-name="Слой 2"><g id="Capa_1" data-name="Capa 1"><path class="cls-1" d="M229.32,102.17a17,17,0,0,0-17,17v99.9a17,17,0,1,0,34.06,0V119.2A17,17,0,0,0,229.32,102.17Z"/><path class="cls-1" d="M176.53,49.38a17,17,0,0,0-17,17V271.9a17,17,0,0,0,34.06,0V66.41A17,17,0,0,0,176.53,49.38Z"/><path class="cls-1" d="M123.18,0a17,17,0,0,0-17,17V321.28a17,17,0,1,0,34,0V17A17,17,0,0,0,123.18,0Z"/><path class="cls-1" d="M70.39,49.38a17,17,0,0,0-17,17V271.9a17,17,0,0,0,34.06,0V66.41A17,17,0,0,0,70.39,49.38Z"/><path class="cls-1" d="M17,98.77a17,17,0,0,0-17,17V222.51a17,17,0,0,0,34.06,0V115.8A17,17,0,0,0,17,98.77Z"/><path class="cls-1" d="M388.83,0a17,17,0,0,0-17,17V321.28a17,17,0,1,0,34.05,0V17A17,17,0,0,0,388.83,0Z"/><path class="cls-1" d="M335.47,49.38a17,17,0,0,0-17,17V271.9a17,17,0,1,0,34.06,0V66.41A17,17,0,0,0,335.47,49.38Z"/><path class="cls-1" d="M282.68,76.06a17,17,0,0,0-17,17V245.21a17,17,0,1,0,34.06,0V93.09A17,17,0,0,0,282.68,76.06Z"/><path class="cls-1" d="M441.61,49.38a17,17,0,0,0-17,17V271.9a17,17,0,1,0,34.05,0V66.41A17,17,0,0,0,441.61,49.38Z"/><path class="cls-1" d="M495,98.77a17,17,0,0,0-17,17V222.51a17,17,0,1,0,34.06,0V115.8A17,17,0,0,0,495,98.77Z"/></g></g></svg>