<svg xmlns="http://www.w3.org/2000/svg" viewBox="0 0 544 511.99"><defs><style>.cls-1{fill:#fff;}</style></defs><g id="Слой_2" data-name="Слой 2"><g id="Слой_1-2" data-name="Слой 1"><path class="cls-1" d="M527.79,288H290.5l158,158c6,6,16,6.53,22.19.68a239.5,239.5,0,0,0,73.13-140.86c1.34-9.46-6.51-17.85-16.06-17.85ZM512,223.2C503.72,103.74,408.26,8.28,288.8,0,279.68-.59,272,7.1,272,16.24V240H495.77c9.14,0,16.82-7.68,16.19-16.8ZM224,288V50.71c0-9.55-8.39-17.4-17.84-16.06C87,51.49-4.1,155.6.14,280.37,4.5,408.51,114.83,513.59,243,512a238.14,238.14,0,0,0,135.26-44c7.9-5.6,8.42-17.23,1.57-24.08Z"/></g></g></svg>