<svg xmlns="http://www.w3.org/2000/svg" viewBox="0 0 384 512"><defs><style>.cls-1{fill:#fff;}</style></defs><g id="Слой_2" data-name="Слой 2"><g id="Слой_1-2" data-name="Слой 1"><path class="cls-1" d="M224,136V0H24A23.94,23.94,0,0,0,0,24V488a23.94,23.94,0,0,0,24,24H360a23.94,23.94,0,0,0,24-24V160H248A24.07,24.07,0,0,1,224,136ZM160,404a12,12,0,0,1-20.5,8.5L104,376H76a12,12,0,0,1-12-12V308a12,12,0,0,1,12-12h28l35.5-36.5A12,12,0,0,1,160,268Zm33.2-47.6a23.84,23.84,0,0,0,0-33.4c-22.1-22.8,12.2-56.2,34.4-33.5a72,72,0,0,1,0,100.4c-21.8,22.3-56.9-10.4-34.4-33.5Zm86-117.1a143.93,143.93,0,0,1,0,200.8c-21.8,22.4-57-10.3-34.4-33.5a95.9,95.9,0,0,0,0-133.8C222.7,250,257.1,216.5,279.2,239.3ZM384,121.9V128H256V0h6.1a24,24,0,0,1,17,7L377,105A23.92,23.92,0,0,1,384,121.9Z"/></g></g></svg>