<?xml version="1.0" encoding="iso-8859-1"?>
<!-- Generator: Adobe Illustrator 19.0.0, SVG Export Plug-In . SVG Version: 6.00 Build 0)  -->
<svg version="1.1" id="Capa_1" xmlns="http://www.w3.org/2000/svg" xmlns:xlink="http://www.w3.org/1999/xlink" x="0px" y="0px"
	 viewBox="0 0 512.006 512.006" style="enable-background:new 0 0 512.006 512.006;" xml:space="preserve">
<g>
	<g>
		<path d="M492.222,341.609c1.762-11.385,2.67-22.885,2.714-34.406c0-131.959-106.974-238.933-238.933-238.933
			S17.069,175.244,17.069,307.203c0.044,11.52,0.951,23.021,2.714,34.406C4.895,350.659-2.682,368.102,0.864,385.16
			c3.546,17.058,17.446,30.036,34.707,32.405c0.904,0.353,1.862,0.546,2.832,0.572h112.479c23.23,0.041,42.727-17.494,45.142-40.598
			c2.415-23.104-13.035-44.291-35.771-49.055c-1.071-15.579-9.313-29.778-22.309-38.435c8.318-57.703,57.11-100.95,115.394-102.281
			c58.284-1.331,109,39.643,119.944,96.906c-13.639-11.95-30.903-18.96-49.012-19.902v-8.769c0-4.713-3.82-8.533-8.533-8.533
			s-8.533,3.82-8.533,8.533v9.645c-8.148,1.294-16.048,3.836-23.422,7.536l-5.453-9.443c-1.523-2.643-4.341-4.271-7.392-4.272
			c-3.05-0.001-5.869,1.626-7.394,4.268c-1.525,2.642-1.524,5.896,0.002,8.537l5.839,10.112c-6.182,4.954-11.61,10.78-16.114,17.297
			l-10.862-6.271c-4.082-2.354-9.299-0.954-11.655,3.127c-2.356,4.081-0.958,9.299,3.121,11.656l11.224,6.481
			c-2.97,7.151-4.891,14.694-5.703,22.394h-13.258c-4.713,0-8.533,3.821-8.533,8.533s3.82,8.533,8.533,8.533h13.258
			c0.813,7.701,2.734,15.243,5.704,22.394l-11.224,6.481c-4.08,2.358-5.477,7.575-3.121,11.656
			c2.356,4.081,7.573,5.481,11.655,3.127l10.862-6.271c4.504,6.517,9.932,12.343,16.114,17.297l-5.839,10.112
			c-2.353,4.082-0.954,9.299,3.127,11.655c4.081,2.356,9.298,0.958,11.656-3.121l5.453-9.443c7.374,3.7,15.274,6.242,23.422,7.536
			v9.645c0,4.713,3.82,8.533,8.533,8.533s8.533-3.82,8.533-8.533v-8.788c8.628-0.445,17.13-2.271,25.179-5.41l3.692,6.419
			c1.52,2.642,4.334,4.273,7.382,4.278c3.048,0.005,5.867-1.617,7.396-4.254c1.528-2.637,1.534-5.89,0.014-8.532l-0.448-0.779
			h106.119c0.967-0.028,1.922-0.228,2.819-0.593c17.262-2.357,31.17-15.33,34.719-32.387S507.112,350.656,492.222,341.609z
			 M256.003,85.336c122.476,0.139,221.728,99.391,221.867,221.867c0,3.525-0.285,6.95-0.446,10.421
			c-3.773-6.76-9.652-12.102-16.742-15.211c-2.565-111.202-93.447-200.011-204.678-200.011S53.889,191.211,51.324,302.413
			c-7.09,3.109-12.97,8.451-16.742,15.211c-0.161-3.471-0.446-6.896-0.446-10.421C34.275,184.727,133.527,85.475,256.003,85.336z
			 M443.549,299.804c-0.896,0.081-1.802,0.09-2.69,0.238c-4.285-5.229-9.584-9.536-15.578-12.663
			c-9.935-85.972-82.734-150.843-169.278-150.843S96.659,201.408,86.724,287.379c-5.993,3.126-11.292,7.433-15.577,12.661
			c-0.888-0.148-1.794-0.157-2.691-0.237c3.95-100.72,86.749-180.336,187.546-180.335
			C356.8,119.468,439.599,199.084,443.549,299.804z M143.361,331.949c0.008,1.112-0.06,2.223-0.204,3.325
			c-0.464,5.276-2.237,10.353-5.158,14.771c-1.674,2.553-1.856,5.806-0.478,8.53c1.378,2.724,4.106,4.504,7.155,4.668
			c3.048,0.164,5.952-1.313,7.615-3.873c2.746-4.227,4.829-8.849,6.177-13.706c13.638,3.746,22.394,17.012,20.475,31.025
			c-1.918,14.012-13.917,24.438-28.06,24.38H41.39c-0.747-0.001-1.493-0.05-2.233-0.146c-12.729-1.155-22.384-11.981-22.08-24.759
			c0.303-12.778,10.461-23.133,23.23-23.683c0.258-0.01,0.47-0.144,0.721-0.177c0.621-0.039,1.236-0.148,1.833-0.323
			c0.132-0.048,0.217-0.156,0.345-0.21c0.536-0.251,1.044-0.56,1.514-0.921c0.442-0.266,0.859-0.573,1.245-0.915
			c0.356-0.401,0.673-0.835,0.946-1.296c0.331-0.436,0.618-0.903,0.858-1.394c0.166-0.475,0.288-0.963,0.367-1.46
			c0.161-0.586,0.257-1.187,0.285-1.794c0.001-0.134,0.067-0.25,0.061-0.385c-0.069-0.437-0.173-0.867-0.311-1.288
			c-0.029-0.427-0.092-0.85-0.189-1.267c-0.703-1.962-1.057-4.032-1.046-6.117c0.012-6.004,2.955-11.623,7.883-15.053
			c4.928-3.429,11.22-4.235,16.854-2.16c2.399,0.896,4.582,2.289,6.404,4.087c1.718,1.693,3.102,3.695,4.079,5.9
			c1.236,2.789,3.867,4.706,6.901,5.028c3.034,0.322,6.008-1.001,7.802-3.469c1.793-2.468,2.132-5.706,0.889-8.492
			c-1.856-4.178-4.482-7.969-7.742-11.175c-0.79-0.773-1.715-1.347-2.563-2.037c9.697-9.009,23.812-11.413,35.945-6.123
			C135.521,306.734,143.364,318.713,143.361,331.949z M256.003,170.67c-66.146-0.251-122.848,47.197-134.263,112.351
			c-3.817-0.927-7.729-1.403-11.657-1.417c-1.812,0.017-3.622,0.132-5.422,0.343c12.261-74.042,76.293-128.343,151.343-128.343
			s139.082,54.3,151.343,128.343c-1.8-0.211-3.61-0.325-5.422-0.343c-3.928,0.014-7.84,0.49-11.657,1.417
			C378.851,217.867,322.148,170.419,256.003,170.67z M279.507,395.397c-14.991-12.167-23.639-30.487-23.505-49.794
			c-0.017-25.546,15.169-48.651,38.626-58.769c23.456-10.118,50.684-5.308,69.254,12.235c-7.134,8.226-11.392,18.552-12.129,29.415
			c-17.219,3.528-30.815,16.745-34.827,33.858c-4.013,17.112,2.291,34.996,16.147,45.81
			C314.207,412.256,294.498,407.563,279.507,395.397z M472.532,400.957L472.532,400.957c-0.636,0.078-1.276,0.115-1.917,0.112
			H361.124c-14.147,0.057-26.148-10.374-28.062-24.39c-1.914-14.017,6.851-27.283,20.495-31.021
			c1.338,4.859,3.415,9.484,6.158,13.711c1.663,2.56,4.566,4.037,7.615,3.873c3.048-0.164,5.777-1.944,7.155-4.668
			c1.378-2.724,1.196-5.977-0.478-8.53c-2.982-4.545-4.772-9.768-5.204-15.188c-0.118-0.965-0.171-1.936-0.158-2.908
			c0.012-11.034,5.486-21.346,14.618-27.539c9.133-6.192,20.739-7.461,30.993-3.388l0.109,0.049
			c3.768,1.519,7.223,3.72,10.193,6.492c-0.845,0.688-1.768,1.26-2.556,2.031c-3.26,3.209-5.888,7.003-7.746,11.183
			c-1.243,2.786-0.904,6.024,0.889,8.492c1.793,2.468,4.768,3.791,7.802,3.469c3.034-0.322,5.665-2.239,6.901-5.028
			c0.979-2.208,2.364-4.212,4.083-5.908c1.81-1.784,3.975-3.168,6.354-4.063c2.061-0.76,4.241-1.15,6.437-1.15
			c10.128,0.011,18.335,8.218,18.346,18.346c0.011,2.084-0.343,4.154-1.046,6.117c-0.098,0.42-0.162,0.847-0.191,1.277
			c-0.137,0.417-0.241,0.844-0.309,1.277c-0.006,0.135,0.061,0.251,0.061,0.385c0.028,0.607,0.124,1.208,0.285,1.794
			c0.296,2.125,1.557,3.994,3.416,5.065c0.47,0.361,0.977,0.669,1.514,0.921c0.128,0.054,0.213,0.162,0.345,0.21
			c0.597,0.176,1.212,0.284,1.833,0.323c0.251,0.033,0.463,0.166,0.721,0.177c12.832,0.554,23.013,11.003,23.234,23.845
			C495.153,389.169,485.337,399.962,472.532,400.957z"/>
	</g>
</g>
<g>
</g>
<g>
</g>
<g>
</g>
<g>
</g>
<g>
</g>
<g>
</g>
<g>
</g>
<g>
</g>
<g>
</g>
<g>
</g>
<g>
</g>
<g>
</g>
<g>
</g>
<g>
</g>
<g>
</g>
</svg>
