<?xml version="1.0" encoding="UTF-8" standalone="no"?>
<svg
   xmlns:dc="http://purl.org/dc/elements/1.1/"
   xmlns:cc="http://creativecommons.org/ns#"
   xmlns:rdf="http://www.w3.org/1999/02/22-rdf-syntax-ns#"
   xmlns:svg="http://www.w3.org/2000/svg"
   xmlns="http://www.w3.org/2000/svg"
   xml:space="preserve"
   style="enable-background:new 0 0 63.002 63.002;"
   viewBox="0 0 63.002 63.002"
   y="0px"
   x="0px"
   id="Capa_1"
   version="1.1"><metadata
   id="metadata42"><rdf:RDF><cc:Work
       rdf:about=""><dc:format>image/svg+xml</dc:format><dc:type
         rdf:resource="http://purl.org/dc/dcmitype/StillImage" /><dc:title></dc:title></cc:Work></rdf:RDF></metadata><defs
   id="defs40" />
<g
   style="fill:#f7f7f7;fill-opacity:1"
   id="g5">
	<g
   style="fill:#f7f7f7;fill-opacity:1"
   id="group-29svg">
		<path
   style="fill:#f7f7f7;fill-opacity:1"
   d="M43.866,61.501H19.137c-5.448,0-10.184-3.445-11.786-8.571L0.572,31.386    c-1.175-3.76-0.52-7.72,1.793-10.867c2.345-3.189,5.986-5.018,9.992-5.018h38.289c3.994,0,7.631,1.831,9.978,5.022    c2.326,3.164,2.984,7.139,1.807,10.907l-6.78,21.554C54.058,58.077,49.322,61.501,43.866,61.501z M12.357,18.501    c-3.041,0-5.802,1.383-7.575,3.795c-1.742,2.37-2.233,5.356-1.348,8.192l6.78,21.544c1.21,3.87,4.795,6.469,8.923,6.469h24.729    c4.138,0,7.723-2.578,8.923-6.416l6.78-21.553c0.889-2.844,0.393-5.845-1.362-8.231c-1.776-2.415-4.531-3.8-7.561-3.8H12.357z"
   id="path-1_20_" />
		<path
   style="fill:#f7f7f7;fill-opacity:1"
   d="M47.056,18.001c-0.828,0-1.5-0.671-1.5-1.5v-5.5c0-3.584-3.342-6.5-6.926-6.5h-15    c-3.584,0-6.074,2.916-6.074,6.5v5.5c0,0.829-0.671,1.5-1.5,1.5c-0.828,0-1.5-0.671-1.5-1.5v-5.5c0-5.238,3.835-9.5,9.074-9.5h15    c5.238,0,9.926,4.262,9.926,9.5v5.5C48.556,17.33,47.885,18.001,47.056,18.001z"
   id="path-2_20_" />
	</g>
</g>
<g
   id="g7">
</g>
<g
   id="g9">
</g>
<g
   id="g11">
</g>
<g
   id="g13">
</g>
<g
   id="g15">
</g>
<g
   id="g17">
</g>
<g
   id="g19">
</g>
<g
   id="g21">
</g>
<g
   id="g23">
</g>
<g
   id="g25">
</g>
<g
   id="g27">
</g>
<g
   id="g29">
</g>
<g
   id="g31">
</g>
<g
   id="g33">
</g>
<g
   id="g35">
</g>
</svg>
