<svg fill="#1dd1e5" height="512" viewBox="0 0 512 512" width="512" xmlns="http://www.w3.org/2000/svg"><g id="Outline"><path d="m314.236 56.265-4.472 15.363a193.423 193.423 0 0 1 99.072 68.143 190.259 190.259 0 0 1 39.164 116.229c0 105.869-86.131 192-192 192s-192-86.131-192-192c0-100.7 77.926-183.535 176.642-191.385l-7.3 10.947 13.312 8.876 16-24a8 8 0 0 0 0-8.876l-16-24-13.312 8.876 8.058 12.082c-107.9 7.52-193.4 97.698-193.4 207.48 0 114.691 93.309 208 208 208s208-93.309 208-208a206.122 206.122 0 0 0 -42.436-125.924 209.541 209.541 0 0 0 -107.328-73.811z"/><path d="m279.05 65.368c5.139.615 10.307 1.447 15.358 2.473l3.184-15.68c-5.474-1.111-11.072-2.014-16.642-2.68z"/><path d="m96 256c0 88.225 71.775 160 160 160s160-71.775 160-160-71.775-160-160-160-160 71.775-160 160zm304 0c0 79.4-64.6 144-144 144s-144-64.6-144-144 64.6-144 144-144 144 64.6 144 144z"/><path d="m248 128h16v16h-16z"/><path d="m188 144.077h15.999v16h-15.999z" transform="matrix(.866 -.5 .5 .866 -49.779 118.374)"/><path d="m144.077 188h15.999v16h-15.999z" transform="matrix(.5 -.866 .866 .5 -93.703 229.703)"/><path d="m128 248h16v16h-16z"/><path d="m144.077 308h16v15.999h-16z" transform="matrix(.866 -.5 .5 .866 -137.631 118.383)"/><path d="m188 351.924h16v15.999h-16z" transform="matrix(.5 -.866 .866 .5 -213.702 349.691)"/><path d="m248 368h16v16h-16z"/><path d="m308 351.923h15.999v16h-15.999z" transform="matrix(.866 -.5 .5 .866 -137.626 206.22)"/><path d="m351.924 308h15.999v16h-15.999z" transform="matrix(.5 -.866 .866 .5 -93.702 469.703)"/><path d="m368 248h16v16h-16z"/><path d="m351.923 188h16v15.999h-16z" transform="matrix(.866 -.5 .5 .866 -49.779 206.233)"/><path d="m308 144.077h16v15.999h-16z" transform="matrix(.5 -.866 .866 .5 26.292 349.694)"/><path d="m248 251.381-72.21 41.691 8 13.856 76.21-44a8 8 0 0 0 4-6.928v-88h-16z"/></g></svg>