<?xml version="1.0"?>
<svg fill="#f9ed1d" xmlns="http://www.w3.org/2000/svg" width="512" height="512" viewBox="0 0 512 512"><g><path d="M496,216H472a8,8,0,0,0-8,8v2.56L389.63,256H336V192a8,8,0,0,0-8-8H184V136h64v16a8,8,0,0,0,8,8H384a24.032,24.032,0,0,0,24-24V120a24.032,24.032,0,0,0-24-24H256a8,8,0,0,0-8,8v16H184V104a8,8,0,0,0-8-8H88a7.991,7.991,0,0,0-7.02,4.17L35.25,184H16a8,8,0,0,0-8,8V400a8,8,0,0,0,8,8H328a8,8,0,0,0,8-8V336h53.63L464,365.44V368a8,8,0,0,0,8,8h24a8,8,0,0,0,8-8V224A8,8,0,0,0,496,216ZM264,112H384a8.011,8.011,0,0,1,8,8v16a8.011,8.011,0,0,1-8,8H264ZM92.75,112H168v72H53.48ZM320,392H24V200H320Zm64-72H336V272h48Zm80,28.23L400,322.9V269.1l64-25.33ZM488,360h-8V232h8Z"/><path d="M40,232v80a8,8,0,0,0,8,8H184a8,8,0,0,0,8-8V232a8,8,0,0,0-8-8H48A8,8,0,0,0,40,232Zm16,8H176v64H56Z"/><path d="M256,264h39a8,8,0,0,0,8-8V232a8,8,0,0,0-8-8H256a8,8,0,0,0-8,8v24A8,8,0,0,0,256,264Zm8-24h23v8H264Z"/><path d="M256,312h39a8,8,0,0,0,8-8V280a8,8,0,0,0-8-8H256a8,8,0,0,0-8,8v24A8,8,0,0,0,256,312Zm8-24h23v8H264Z"/><path d="M256,360h39a8,8,0,0,0,8-8V328a8,8,0,0,0-8-8H256a8,8,0,0,0-8,8v24A8,8,0,0,0,256,360Zm8-24h23v8H264Z"/><path d="M135,328H47a8,8,0,0,0,0,16h88a8,8,0,0,0,0-16Z"/><path d="M63,352H47a8,8,0,0,0,0,16H63a8,8,0,0,0,0-16Z"/></g></svg>
